<svg id="Layer_1" data-name="Layer 1" xmlns="http://www.w3.org/2000/svg" viewBox="0 0 512 512"><defs><style>.cls-1{fill:#141f38;}</style></defs><title>browser-11-glyph</title><path class="cls-1" d="M448,0H64A64,64,0,0,0,0,64v51.2H512V64A64,64,0,0,0,448,0ZM70.4,76.8A19.2,19.2,0,1,1,89.6,57.6,19.2,19.2,0,0,1,70.4,76.8Zm51.2,0a19.2,19.2,0,1,1,19.2-19.2A19.2,19.2,0,0,1,121.6,76.8Zm51.2,0A19.2,19.2,0,1,1,192,57.6,19.2,19.2,0,0,1,172.8,76.8ZM0,448a64,64,0,0,0,64,64H448a64,64,0,0,0,64-64V140.8H0ZM413.35,290.65a12.8,12.8,0,0,1,18.1-18.1l25.6,25.6a12.8,12.8,0,0,1,0,18.1l-25.6,25.6a12.8,12.8,0,1,1-18.1-18.1L429.9,307.2ZM128,236.8a32,32,0,0,1,32-32H352a32,32,0,0,1,32,32V416a32,32,0,0,1-32,32H160a32,32,0,0,1-32-32ZM55,298.15l25.6-25.6a12.8,12.8,0,0,1,18.1,18.1L82.1,307.2l16.55,16.55a12.8,12.8,0,1,1-18.1,18.1L55,316.25A12.8,12.8,0,0,1,55,298.15Z"/></svg>