<svg id="Layer_1" data-name="Layer 1" xmlns="http://www.w3.org/2000/svg" viewBox="0 0 512 512"><title>written-documents-outline</title><polygon points="79.26 467.31 24 467.31 24 0 441.92 0 441.92 151.12 423.92 151.12 423.92 18 42 18 42 449.31 79.26 449.31 79.26 467.31"/><path d="M488,512H70.08V44.69H336.53L488,192.19ZM88.08,494H470V199.79L329.22,62.69H88.08Z"/><polygon points="479.18 204.73 324.05 204.73 324.05 53.66 342.05 53.66 342.05 186.73 479.18 186.73 479.18 204.73"/><rect x="122.08" y="186.73" width="158.96" height="18"/><rect x="122.08" y="252.38" width="310.84" height="18"/><rect x="122.08" y="318.02" width="310.84" height="18"/><rect x="122.08" y="383.66" width="310.84" height="18"/><rect x="122.08" y="449.31" width="310.84" height="18"/></svg>