<svg id="Layer_1" data-name="Layer 1" xmlns="http://www.w3.org/2000/svg" viewBox="0 0 512 512"><title>moon-glyph</title><path d="M188.46,149.75l18.08,13.13-6.9,21.26a17.27,17.27,0,0,0,26.57,19.31l18.08-13.14,18.08,13.14a17.27,17.27,0,0,0,26.57-19.31L282,162.88l18.08-13.13A17.27,17.27,0,0,0,290,118.52H267.61L260.7,97.26a17.27,17.27,0,0,0-32.84,0L221,118.52H198.6a17.27,17.27,0,0,0-10.15,31.23Zm40.25-9.9a10.67,10.67,0,0,0,10.15-7.37l5.43-16.71,5.43,16.71a10.66,10.66,0,0,0,10.14,7.37h17.57l-14.22,10.33a10.67,10.67,0,0,0-3.88,11.93l5.43,16.72-14.22-10.33a10.66,10.66,0,0,0-12.54,0l-14.22,10.33,5.43-16.72a10.67,10.67,0,0,0-3.88-11.93l-14.22-10.33Zm38,110.82A10.67,10.67,0,1,1,256,261.34,10.67,10.67,0,0,1,266.66,250.67ZM352,197.34A10.67,10.67,0,1,1,362.66,208,10.67,10.67,0,0,1,352,197.34ZM298.66,48a10.67,10.67,0,1,1,10.67,10.67A10.67,10.67,0,0,1,298.66,48ZM512,367.2A48.9,48.9,0,0,1,463.11,416H317.17a55.74,55.74,0,1,1,6.13-111.13,80.18,80.18,0,0,1,152.36,15.2A49.12,49.12,0,0,1,512,367.2ZM317.17,437.34H330a211.49,211.49,0,0,1-119.59,37.33c-2.93,0-5.85-.06-8.79-.19C93.21,469.92,4.75,381.46.19,273.09A211.7,211.7,0,0,1,113.61,77,26.75,26.75,0,0,1,149,114.11a154.22,154.22,0,0,0-20.58,90.07c5,65.6,52.11,120.43,114,137.18a76.79,76.79,0,0,0,74.74,96Z"/></svg>